<mxfile host="app.diagrams.net" agent="Mozilla/5.0 (Windows NT 10.0; Win64; x64) AppleWebKit/537.36 (KHTML, like Gecko) Chrome/136.0.0.0 Safari/537.36 Edg/136.0.0.0" version="27.0.6">
  <diagram name="Page-1" id="0783ab3e-0a74-02c8-0abd-f7b4e66b4bec">
    <mxGraphModel dx="1880" dy="1036" grid="1" gridSize="10" guides="1" tooltips="1" connect="1" arrows="1" fold="1" page="1" pageScale="1" pageWidth="850" pageHeight="1100" background="none" math="0" shadow="0">
      <root>
        <mxCell id="0" />
        <mxCell id="1" parent="0" />
        <mxCell id="1c1d494c118603dd-1" value="Tạo mới sản phẩm (Admin)" style="swimlane;html=1;childLayout=stackLayout;startSize=20;rounded=0;shadow=0;comic=0;labelBackgroundColor=none;strokeWidth=1;fontFamily=Verdana;fontSize=12;align=center;" parent="1" vertex="1">
          <mxGeometry x="40" y="20" width="920" height="1090" as="geometry" />
        </mxCell>
        <mxCell id="1c1d494c118603dd-2" value="Admin" style="swimlane;html=1;startSize=20;" parent="1c1d494c118603dd-1" vertex="1">
          <mxGeometry y="20" width="550" height="1070" as="geometry" />
        </mxCell>
        <mxCell id="gPlMxf_Z7xlQIVdGhyHZ-1" value="" style="ellipse;html=1;shape=startState;fillColor=#000000;strokeColor=#ff0000;" vertex="1" parent="1c1d494c118603dd-2">
          <mxGeometry x="100" y="50" width="30" height="30" as="geometry" />
        </mxCell>
        <mxCell id="gPlMxf_Z7xlQIVdGhyHZ-2" value="" style="edgeStyle=orthogonalEdgeStyle;html=1;verticalAlign=bottom;endArrow=open;endSize=8;strokeColor=#ff0000;rounded=0;" edge="1" source="gPlMxf_Z7xlQIVdGhyHZ-1" parent="1c1d494c118603dd-2">
          <mxGeometry relative="1" as="geometry">
            <mxPoint x="115" y="140" as="targetPoint" />
          </mxGeometry>
        </mxCell>
        <mxCell id="gPlMxf_Z7xlQIVdGhyHZ-3" value="Chọn chức năng quản lý sản phẩm" style="rounded=1;whiteSpace=wrap;html=1;" vertex="1" parent="1c1d494c118603dd-2">
          <mxGeometry x="40" y="140" width="150" height="60" as="geometry" />
        </mxCell>
        <mxCell id="gPlMxf_Z7xlQIVdGhyHZ-5" value="Chọn tạo mới sản phẩm" style="rounded=1;whiteSpace=wrap;html=1;" vertex="1" parent="1c1d494c118603dd-2">
          <mxGeometry x="40" y="240" width="150" height="60" as="geometry" />
        </mxCell>
        <mxCell id="gPlMxf_Z7xlQIVdGhyHZ-10" value="" style="html=1;points=[];perimeter=orthogonalPerimeter;fillColor=strokeColor;rotation=-90;" vertex="1" parent="1c1d494c118603dd-2">
          <mxGeometry x="270" y="150" width="5" height="500" as="geometry" />
        </mxCell>
        <mxCell id="gPlMxf_Z7xlQIVdGhyHZ-11" value="Nhập thông tin mô tả sản phẩm" style="rounded=1;whiteSpace=wrap;html=1;" vertex="1" parent="1c1d494c118603dd-2">
          <mxGeometry x="20" y="430" width="80" height="90" as="geometry" />
        </mxCell>
        <mxCell id="gPlMxf_Z7xlQIVdGhyHZ-12" value="Nhập giá của sản phẩm" style="rounded=1;whiteSpace=wrap;html=1;" vertex="1" parent="1c1d494c118603dd-2">
          <mxGeometry x="130" y="430" width="80" height="90" as="geometry" />
        </mxCell>
        <mxCell id="gPlMxf_Z7xlQIVdGhyHZ-13" value="Nhập số lượng sản phẩm&amp;nbsp;" style="rounded=1;whiteSpace=wrap;html=1;" vertex="1" parent="1c1d494c118603dd-2">
          <mxGeometry x="240" y="430" width="80" height="90" as="geometry" />
        </mxCell>
        <mxCell id="gPlMxf_Z7xlQIVdGhyHZ-14" value="Chọn các hình thức thanh toán cho sản phẩm" style="rounded=1;whiteSpace=wrap;html=1;" vertex="1" parent="1c1d494c118603dd-2">
          <mxGeometry x="345" y="430" width="80" height="90" as="geometry" />
        </mxCell>
        <mxCell id="gPlMxf_Z7xlQIVdGhyHZ-15" value="Tạo các khuyến mãi cho sản phẩm" style="rounded=1;whiteSpace=wrap;html=1;" vertex="1" parent="1c1d494c118603dd-2">
          <mxGeometry x="450" y="430" width="80" height="90" as="geometry" />
        </mxCell>
        <mxCell id="gPlMxf_Z7xlQIVdGhyHZ-17" value="" style="html=1;points=[];perimeter=orthogonalPerimeter;fillColor=strokeColor;rotation=-90;" vertex="1" parent="1c1d494c118603dd-2">
          <mxGeometry x="270" y="305" width="5" height="510" as="geometry" />
        </mxCell>
        <mxCell id="gPlMxf_Z7xlQIVdGhyHZ-18" value="" style="endArrow=classic;html=1;rounded=0;entryX=0.5;entryY=0;entryDx=0;entryDy=0;exitX=-0.141;exitY=0.073;exitDx=0;exitDy=0;exitPerimeter=0;" edge="1" parent="1c1d494c118603dd-2" source="gPlMxf_Z7xlQIVdGhyHZ-10">
          <mxGeometry width="50" height="50" relative="1" as="geometry">
            <mxPoint x="60.5" y="404.015" as="sourcePoint" />
            <mxPoint x="59.5" y="430" as="targetPoint" />
          </mxGeometry>
        </mxCell>
        <mxCell id="gPlMxf_Z7xlQIVdGhyHZ-19" value="" style="endArrow=classic;html=1;rounded=0;entryX=0.5;entryY=0;entryDx=0;entryDy=0;exitX=0.206;exitY=0.295;exitDx=0;exitDy=0;exitPerimeter=0;" edge="1" parent="1c1d494c118603dd-2" source="gPlMxf_Z7xlQIVdGhyHZ-10" target="gPlMxf_Z7xlQIVdGhyHZ-12">
          <mxGeometry width="50" height="50" relative="1" as="geometry">
            <mxPoint x="160" y="410" as="sourcePoint" />
            <mxPoint x="160.5" y="437" as="targetPoint" />
          </mxGeometry>
        </mxCell>
        <mxCell id="gPlMxf_Z7xlQIVdGhyHZ-21" value="" style="endArrow=classic;html=1;rounded=0;entryX=0.5;entryY=0;entryDx=0;entryDy=0;exitX=0.347;exitY=0.725;exitDx=0;exitDy=0;exitPerimeter=0;" edge="1" parent="1c1d494c118603dd-2" source="gPlMxf_Z7xlQIVdGhyHZ-10" target="gPlMxf_Z7xlQIVdGhyHZ-14">
          <mxGeometry width="50" height="50" relative="1" as="geometry">
            <mxPoint x="390" y="410" as="sourcePoint" />
            <mxPoint x="390.5" y="437" as="targetPoint" />
          </mxGeometry>
        </mxCell>
        <mxCell id="gPlMxf_Z7xlQIVdGhyHZ-22" value="" style="endArrow=classic;html=1;rounded=0;entryX=0.5;entryY=0;entryDx=0;entryDy=0;exitX=-0.141;exitY=0.073;exitDx=0;exitDy=0;exitPerimeter=0;" edge="1" parent="1c1d494c118603dd-2">
          <mxGeometry width="50" height="50" relative="1" as="geometry">
            <mxPoint x="489.75" y="403" as="sourcePoint" />
            <mxPoint x="490.25" y="430" as="targetPoint" />
          </mxGeometry>
        </mxCell>
        <mxCell id="gPlMxf_Z7xlQIVdGhyHZ-23" value="" style="endArrow=classic;html=1;rounded=0;entryX=0.817;entryY=0.082;entryDx=0;entryDy=0;exitX=0.5;exitY=1;exitDx=0;exitDy=0;entryPerimeter=0;" edge="1" parent="1c1d494c118603dd-2" source="gPlMxf_Z7xlQIVdGhyHZ-11" target="gPlMxf_Z7xlQIVdGhyHZ-17">
          <mxGeometry width="50" height="50" relative="1" as="geometry">
            <mxPoint x="50" y="540" as="sourcePoint" />
            <mxPoint x="50.5" y="567" as="targetPoint" />
          </mxGeometry>
        </mxCell>
        <mxCell id="gPlMxf_Z7xlQIVdGhyHZ-24" value="" style="endArrow=classic;html=1;rounded=0;entryX=0.965;entryY=0.297;entryDx=0;entryDy=0;exitX=-0.141;exitY=0.073;exitDx=0;exitDy=0;exitPerimeter=0;entryPerimeter=0;" edge="1" parent="1c1d494c118603dd-2" target="gPlMxf_Z7xlQIVdGhyHZ-17">
          <mxGeometry width="50" height="50" relative="1" as="geometry">
            <mxPoint x="169.75" y="520" as="sourcePoint" />
            <mxPoint x="170.25" y="547" as="targetPoint" />
          </mxGeometry>
        </mxCell>
        <mxCell id="gPlMxf_Z7xlQIVdGhyHZ-25" value="" style="endArrow=classic;html=1;rounded=0;entryX=0.965;entryY=0.514;entryDx=0;entryDy=0;exitX=-0.141;exitY=0.073;exitDx=0;exitDy=0;exitPerimeter=0;entryPerimeter=0;" edge="1" parent="1c1d494c118603dd-2" target="gPlMxf_Z7xlQIVdGhyHZ-17">
          <mxGeometry width="50" height="50" relative="1" as="geometry">
            <mxPoint x="279.75" y="520" as="sourcePoint" />
            <mxPoint x="280.25" y="547" as="targetPoint" />
          </mxGeometry>
        </mxCell>
        <mxCell id="gPlMxf_Z7xlQIVdGhyHZ-26" value="" style="endArrow=classic;html=1;rounded=0;entryX=0.768;entryY=0.722;entryDx=0;entryDy=0;exitX=-0.141;exitY=0.073;exitDx=0;exitDy=0;exitPerimeter=0;entryPerimeter=0;" edge="1" parent="1c1d494c118603dd-2" target="gPlMxf_Z7xlQIVdGhyHZ-17">
          <mxGeometry width="50" height="50" relative="1" as="geometry">
            <mxPoint x="385" y="520" as="sourcePoint" />
            <mxPoint x="385.5" y="547" as="targetPoint" />
          </mxGeometry>
        </mxCell>
        <mxCell id="gPlMxf_Z7xlQIVdGhyHZ-27" value="" style="endArrow=classic;html=1;rounded=0;exitX=0.5;exitY=1;exitDx=0;exitDy=0;entryX=0.768;entryY=0.927;entryDx=0;entryDy=0;entryPerimeter=0;" edge="1" parent="1c1d494c118603dd-2" source="gPlMxf_Z7xlQIVdGhyHZ-15" target="gPlMxf_Z7xlQIVdGhyHZ-17">
          <mxGeometry width="50" height="50" relative="1" as="geometry">
            <mxPoint x="500" y="550" as="sourcePoint" />
            <mxPoint x="501" y="580" as="targetPoint" />
          </mxGeometry>
        </mxCell>
        <mxCell id="gPlMxf_Z7xlQIVdGhyHZ-31" value="Chọn xác nhận thêm mới" style="rounded=1;whiteSpace=wrap;html=1;" vertex="1" parent="1c1d494c118603dd-2">
          <mxGeometry x="190" y="600" width="180" height="60" as="geometry" />
        </mxCell>
        <mxCell id="gPlMxf_Z7xlQIVdGhyHZ-6" value="" style="endArrow=classic;html=1;rounded=0;exitX=1;exitY=0.5;exitDx=0;exitDy=0;entryX=0;entryY=0.5;entryDx=0;entryDy=0;" edge="1" parent="1c1d494c118603dd-1" source="gPlMxf_Z7xlQIVdGhyHZ-5" target="gPlMxf_Z7xlQIVdGhyHZ-7">
          <mxGeometry width="50" height="50" relative="1" as="geometry">
            <mxPoint x="360" y="400" as="sourcePoint" />
            <mxPoint x="480" y="290" as="targetPoint" />
          </mxGeometry>
        </mxCell>
        <mxCell id="gPlMxf_Z7xlQIVdGhyHZ-8" value="" style="endArrow=classic;html=1;rounded=0;entryX=0.91;entryY=0.516;entryDx=0;entryDy=0;entryPerimeter=0;exitX=0.5;exitY=1;exitDx=0;exitDy=0;" edge="1" parent="1c1d494c118603dd-1" source="gPlMxf_Z7xlQIVdGhyHZ-7" target="gPlMxf_Z7xlQIVdGhyHZ-10">
          <mxGeometry width="50" height="50" relative="1" as="geometry">
            <mxPoint x="650" y="320" as="sourcePoint" />
            <mxPoint x="257.80000000000007" y="419.52" as="targetPoint" />
            <Array as="points">
              <mxPoint x="720" y="380" />
              <mxPoint x="280" y="380" />
              <mxPoint x="280" y="400" />
            </Array>
          </mxGeometry>
        </mxCell>
        <mxCell id="gPlMxf_Z7xlQIVdGhyHZ-32" value="" style="endArrow=classic;html=1;rounded=0;exitX=1;exitY=0.5;exitDx=0;exitDy=0;entryX=0;entryY=0.5;entryDx=0;entryDy=0;" edge="1" parent="1c1d494c118603dd-1" source="gPlMxf_Z7xlQIVdGhyHZ-31" target="gPlMxf_Z7xlQIVdGhyHZ-33">
          <mxGeometry width="50" height="50" relative="1" as="geometry">
            <mxPoint x="410" y="580" as="sourcePoint" />
            <mxPoint x="620" y="650" as="targetPoint" />
          </mxGeometry>
        </mxCell>
        <mxCell id="1c1d494c118603dd-3" value="Hệ thống" style="swimlane;html=1;startSize=20;" parent="1c1d494c118603dd-1" vertex="1">
          <mxGeometry x="550" y="20" width="370" height="1070" as="geometry" />
        </mxCell>
        <mxCell id="gPlMxf_Z7xlQIVdGhyHZ-7" value="Hiển thị form thêm mới sản phẩm" style="rounded=1;whiteSpace=wrap;html=1;" vertex="1" parent="1c1d494c118603dd-3">
          <mxGeometry x="100" y="240" width="140" height="60" as="geometry" />
        </mxCell>
        <mxCell id="gPlMxf_Z7xlQIVdGhyHZ-33" value="Kiểm tra thông tin trong form thêm mới sản phẩm" style="rounded=1;whiteSpace=wrap;html=1;" vertex="1" parent="1c1d494c118603dd-3">
          <mxGeometry x="40" y="600" width="150" height="60" as="geometry" />
        </mxCell>
        <mxCell id="gPlMxf_Z7xlQIVdGhyHZ-34" value="" style="rhombus;whiteSpace=wrap;html=1;fontColor=#000000;fillColor=#ffffc0;strokeColor=#ff0000;" vertex="1" parent="1c1d494c118603dd-3">
          <mxGeometry x="75" y="690" width="80" height="40" as="geometry" />
        </mxCell>
        <mxCell id="gPlMxf_Z7xlQIVdGhyHZ-35" value="[Không hợp lệ]" style="edgeStyle=orthogonalEdgeStyle;html=1;align=left;verticalAlign=bottom;endArrow=open;endSize=8;strokeColor=#ff0000;rounded=0;" edge="1" source="gPlMxf_Z7xlQIVdGhyHZ-34" parent="1c1d494c118603dd-3">
          <mxGeometry x="-1" relative="1" as="geometry">
            <mxPoint x="240" y="710" as="targetPoint" />
            <Array as="points">
              <mxPoint x="240" y="710" />
            </Array>
          </mxGeometry>
        </mxCell>
        <mxCell id="gPlMxf_Z7xlQIVdGhyHZ-36" value="[Hợp lệ]" style="edgeStyle=orthogonalEdgeStyle;html=1;align=left;verticalAlign=top;endArrow=open;endSize=8;strokeColor=#ff0000;rounded=0;" edge="1" parent="1c1d494c118603dd-3">
          <mxGeometry x="-1" relative="1" as="geometry">
            <mxPoint x="114.78" y="812.5" as="targetPoint" />
            <mxPoint x="114.78" y="729.9999999999999" as="sourcePoint" />
            <Array as="points">
              <mxPoint x="114.78" y="812.5" />
            </Array>
          </mxGeometry>
        </mxCell>
        <mxCell id="gPlMxf_Z7xlQIVdGhyHZ-37" value="" style="endArrow=classic;html=1;rounded=0;exitX=0.5;exitY=1;exitDx=0;exitDy=0;entryX=0.5;entryY=0;entryDx=0;entryDy=0;" edge="1" parent="1c1d494c118603dd-3" source="gPlMxf_Z7xlQIVdGhyHZ-33" target="gPlMxf_Z7xlQIVdGhyHZ-34">
          <mxGeometry width="50" height="50" relative="1" as="geometry">
            <mxPoint y="730" as="sourcePoint" />
            <mxPoint x="50" y="680" as="targetPoint" />
          </mxGeometry>
        </mxCell>
        <mxCell id="gPlMxf_Z7xlQIVdGhyHZ-38" value="Thông báo tạo mới sản phẩm thất bại" style="rounded=1;whiteSpace=wrap;html=1;" vertex="1" parent="1c1d494c118603dd-3">
          <mxGeometry x="240" y="680" width="120" height="60" as="geometry" />
        </mxCell>
        <mxCell id="gPlMxf_Z7xlQIVdGhyHZ-76" value="" style="html=1;points=[];perimeter=orthogonalPerimeter;fillColor=strokeColor;rotation=-90;" vertex="1" parent="1c1d494c118603dd-3">
          <mxGeometry x="135" y="707.5" width="5" height="215" as="geometry" />
        </mxCell>
        <mxCell id="gPlMxf_Z7xlQIVdGhyHZ-77" value="Thông báo tạo mới sản phẩm thành công" style="rounded=1;whiteSpace=wrap;html=1;" vertex="1" parent="1c1d494c118603dd-3">
          <mxGeometry x="20" y="850" width="100" height="60" as="geometry" />
        </mxCell>
        <mxCell id="gPlMxf_Z7xlQIVdGhyHZ-78" value="Cập nhật mặt hàng mới vào CSDL" style="rounded=1;whiteSpace=wrap;html=1;" vertex="1" parent="1c1d494c118603dd-3">
          <mxGeometry x="145" y="850" width="105" height="60" as="geometry" />
        </mxCell>
        <mxCell id="gPlMxf_Z7xlQIVdGhyHZ-79" value="" style="endArrow=classic;html=1;rounded=0;exitX=0.5;exitY=0;exitDx=0;exitDy=0;entryX=1;entryY=0.5;entryDx=0;entryDy=0;" edge="1" parent="1c1d494c118603dd-3" source="gPlMxf_Z7xlQIVdGhyHZ-38" target="gPlMxf_Z7xlQIVdGhyHZ-7">
          <mxGeometry width="50" height="50" relative="1" as="geometry">
            <mxPoint x="20" y="740" as="sourcePoint" />
            <mxPoint x="70" y="690" as="targetPoint" />
            <Array as="points">
              <mxPoint x="300" y="270" />
            </Array>
          </mxGeometry>
        </mxCell>
        <mxCell id="gPlMxf_Z7xlQIVdGhyHZ-80" value="" style="html=1;points=[];perimeter=orthogonalPerimeter;fillColor=strokeColor;rotation=-90;" vertex="1" parent="1c1d494c118603dd-3">
          <mxGeometry x="140" y="840" width="5" height="215" as="geometry" />
        </mxCell>
        <mxCell id="gPlMxf_Z7xlQIVdGhyHZ-81" value="" style="endArrow=classic;html=1;rounded=0;exitX=-0.04;exitY=0.186;exitDx=0;exitDy=0;exitPerimeter=0;entryX=0.5;entryY=0;entryDx=0;entryDy=0;" edge="1" parent="1c1d494c118603dd-3" source="gPlMxf_Z7xlQIVdGhyHZ-76" target="gPlMxf_Z7xlQIVdGhyHZ-77">
          <mxGeometry width="50" height="50" relative="1" as="geometry">
            <mxPoint x="60" y="930" as="sourcePoint" />
            <mxPoint x="110" y="880" as="targetPoint" />
          </mxGeometry>
        </mxCell>
        <mxCell id="gPlMxf_Z7xlQIVdGhyHZ-83" value="" style="endArrow=classic;html=1;rounded=0;exitX=-0.04;exitY=0.186;exitDx=0;exitDy=0;exitPerimeter=0;entryX=0.5;entryY=0;entryDx=0;entryDy=0;" edge="1" parent="1c1d494c118603dd-3">
          <mxGeometry width="50" height="50" relative="1" as="geometry">
            <mxPoint x="197.39999999999998" y="818" as="sourcePoint" />
            <mxPoint x="197.39999999999998" y="850" as="targetPoint" />
          </mxGeometry>
        </mxCell>
        <mxCell id="gPlMxf_Z7xlQIVdGhyHZ-84" value="" style="endArrow=classic;html=1;rounded=0;exitX=-0.04;exitY=0.186;exitDx=0;exitDy=0;exitPerimeter=0;entryX=0.854;entryY=0.162;entryDx=0;entryDy=0;entryPerimeter=0;" edge="1" parent="1c1d494c118603dd-3" target="gPlMxf_Z7xlQIVdGhyHZ-80">
          <mxGeometry width="50" height="50" relative="1" as="geometry">
            <mxPoint x="69.84000000000003" y="910" as="sourcePoint" />
            <mxPoint x="69.84000000000003" y="942" as="targetPoint" />
          </mxGeometry>
        </mxCell>
        <mxCell id="gPlMxf_Z7xlQIVdGhyHZ-85" value="" style="endArrow=classic;html=1;rounded=0;exitX=-0.04;exitY=0.186;exitDx=0;exitDy=0;exitPerimeter=0;entryX=0.854;entryY=0.755;entryDx=0;entryDy=0;entryPerimeter=0;" edge="1" parent="1c1d494c118603dd-3" target="gPlMxf_Z7xlQIVdGhyHZ-80">
          <mxGeometry width="50" height="50" relative="1" as="geometry">
            <mxPoint x="197.34000000000003" y="910" as="sourcePoint" />
            <mxPoint x="197.34000000000003" y="942" as="targetPoint" />
          </mxGeometry>
        </mxCell>
        <mxCell id="gPlMxf_Z7xlQIVdGhyHZ-87" value="Cập nhật lại giao diện quản lý sản phẩm" style="rounded=1;whiteSpace=wrap;html=1;" vertex="1" parent="1c1d494c118603dd-3">
          <mxGeometry x="77.5" y="995" width="120" height="60" as="geometry" />
        </mxCell>
        <mxCell id="gPlMxf_Z7xlQIVdGhyHZ-86" value="" style="endArrow=classic;html=1;rounded=0;exitX=-0.267;exitY=0.477;exitDx=0;exitDy=0;exitPerimeter=0;entryX=0.5;entryY=0;entryDx=0;entryDy=0;" edge="1" parent="1c1d494c118603dd-3" source="gPlMxf_Z7xlQIVdGhyHZ-80" target="gPlMxf_Z7xlQIVdGhyHZ-87">
          <mxGeometry width="50" height="50" relative="1" as="geometry">
            <mxPoint x="-30" y="880" as="sourcePoint" />
            <mxPoint x="138" y="990" as="targetPoint" />
          </mxGeometry>
        </mxCell>
        <mxCell id="gPlMxf_Z7xlQIVdGhyHZ-89" value="" style="ellipse;html=1;shape=endState;fillColor=#000000;strokeColor=#ff0000;" vertex="1" parent="1c1d494c118603dd-3">
          <mxGeometry x="270" y="1010" width="30" height="30" as="geometry" />
        </mxCell>
        <mxCell id="gPlMxf_Z7xlQIVdGhyHZ-90" value="" style="endArrow=classic;html=1;rounded=0;entryX=0;entryY=0.5;entryDx=0;entryDy=0;exitX=1;exitY=0.5;exitDx=0;exitDy=0;" edge="1" parent="1c1d494c118603dd-3" source="gPlMxf_Z7xlQIVdGhyHZ-87" target="gPlMxf_Z7xlQIVdGhyHZ-89">
          <mxGeometry width="50" height="50" relative="1" as="geometry">
            <mxPoint x="140" y="890" as="sourcePoint" />
            <mxPoint x="190" y="840" as="targetPoint" />
          </mxGeometry>
        </mxCell>
        <mxCell id="gPlMxf_Z7xlQIVdGhyHZ-4" value="" style="endArrow=classic;html=1;rounded=0;exitX=0.5;exitY=1;exitDx=0;exitDy=0;" edge="1" parent="1" source="gPlMxf_Z7xlQIVdGhyHZ-3">
          <mxGeometry width="50" height="50" relative="1" as="geometry">
            <mxPoint x="400" y="420" as="sourcePoint" />
            <mxPoint x="155" y="280" as="targetPoint" />
          </mxGeometry>
        </mxCell>
        <mxCell id="gPlMxf_Z7xlQIVdGhyHZ-20" value="" style="endArrow=classic;html=1;rounded=0;exitX=-0.126;exitY=0.515;exitDx=0;exitDy=0;exitPerimeter=0;" edge="1" parent="1" source="gPlMxf_Z7xlQIVdGhyHZ-10">
          <mxGeometry width="50" height="50" relative="1" as="geometry">
            <mxPoint x="320" y="450" as="sourcePoint" />
            <mxPoint x="320" y="470" as="targetPoint" />
          </mxGeometry>
        </mxCell>
        <mxCell id="gPlMxf_Z7xlQIVdGhyHZ-30" value="" style="endArrow=classic;html=1;rounded=0;exitX=0.031;exitY=0.514;exitDx=0;exitDy=0;exitPerimeter=0;" edge="1" parent="1" source="gPlMxf_Z7xlQIVdGhyHZ-17">
          <mxGeometry width="50" height="50" relative="1" as="geometry">
            <mxPoint x="220" y="690" as="sourcePoint" />
            <mxPoint x="320" y="640" as="targetPoint" />
          </mxGeometry>
        </mxCell>
      </root>
    </mxGraphModel>
  </diagram>
</mxfile>
